<svg width="20" height="25" viewBox="0 0 20 25" fill="none" xmlns="http://www.w3.org/2000/svg">
<path d="M10.6562 17.5C11.4479 17.5 12.224 17.3333 12.9844 17C13.7448 16.6667 14.4062 16.1667 14.9688 15.5C15.1146 15.3333 15.1458 15.1458 15.0625 14.9375C14.9792 14.7292 14.8333 14.6042 14.625 14.5625C13.8333 14.4375 13.0833 14.1406 12.375 13.6719C11.6667 13.2031 11.0938 12.5833 10.6562 11.8125C10.2396 11.0833 9.99479 10.2969 9.92188 9.45312C9.84896 8.60938 9.95833 7.79167 10.25 7C10.3333 6.79167 10.3073 6.60417 10.1719 6.4375C10.0365 6.27083 9.85417 6.20833 9.625 6.25C8.1875 6.52083 7.05208 7.19792 6.21875 8.28125C5.38542 9.36458 4.96875 10.5625 4.96875 11.875C4.96875 13.4375 5.52604 14.7656 6.64062 15.8594C7.75521 16.9531 9.09375 17.5 10.6562 17.5ZM10 25C7.10417 24.2708 4.71354 22.6094 2.82812 20.0156C0.942708 17.4219 0 14.5417 0 11.375V3.75L10 0L20 3.75V11.375C20 14.5417 19.0573 17.4219 17.1719 20.0156C15.2865 22.6094 12.8958 24.2708 10 25ZM10 22.375C12.1667 21.6875 13.9583 20.3125 15.375 18.25C16.7917 16.1875 17.5 13.8958 17.5 11.375V5.46875L10 2.65625L2.5 5.46875V11.375C2.5 13.8958 3.20833 16.1875 4.625 18.25C6.04167 20.3125 7.83333 21.6875 10 22.375Z" fill="#10B77F"/>
</svg>
