<svg width="32" height="32" viewBox="0 0 32 32" fill="none" xmlns="http://www.w3.org/2000/svg">
<rect width="32" height="32" rx="8" fill="#10B77F" fill-opacity="0.2"/>
<path d="M16 17C15.0167 17 14.1875 16.6625 13.5125 15.9875C12.8375 15.3125 12.5 14.4833 12.5 13.5C12.5 12.5167 12.8375 11.6875 13.5125 11.0125C14.1875 10.3375 15.0167 10 16 10C16.9833 10 17.8125 10.3375 18.4875 11.0125C19.1625 11.6875 19.5 12.5167 19.5 13.5C19.5 14.4833 19.1625 15.3125 18.4875 15.9875C17.8125 16.6625 16.9833 17 16 17ZM16 15C16.4333 15 16.7917 14.8583 17.075 14.575C17.3583 14.2917 17.5 13.9333 17.5 13.5C17.5 13.0667 17.3583 12.7083 17.075 12.425C16.7917 12.1417 16.4333 12 16 12C15.5667 12 15.2083 12.1417 14.925 12.425C14.6417 12.7083 14.5 13.0667 14.5 13.5C14.5 13.9333 14.6417 14.2917 14.925 14.575C15.2083 14.8583 15.5667 15 16 15ZM16 26C13.6833 25.4167 11.7708 24.0875 10.2625 22.0125C8.75417 19.9375 8 17.6333 8 15.1V9L16 6L24 9V15.1C24 17.6333 23.2458 19.9375 21.7375 22.0125C20.2292 24.0875 18.3167 25.4167 16 26ZM16 8.125L10 10.375V15.1C10 16 10.125 16.875 10.375 17.725C10.625 18.575 10.9667 19.375 11.4 20.125C12.1 19.775 12.8333 19.5 13.6 19.3C14.3667 19.1 15.1667 19 16 19C16.8333 19 17.6333 19.1 18.4 19.3C19.1667 19.5 19.9 19.775 20.6 20.125C21.0333 19.375 21.375 18.575 21.625 17.725C21.875 16.875 22 16 22 15.1V10.375L16 8.125ZM16 21C15.4 21 14.8167 21.0667 14.25 21.2C13.6833 21.3333 13.1417 21.5167 12.625 21.75C13.1083 22.25 13.6333 22.6833 14.2 23.05C14.7667 23.4167 15.3667 23.7 16 23.9C16.6333 23.7 17.2333 23.4167 17.8 23.05C18.3667 22.6833 18.8917 22.25 19.375 21.75C18.8583 21.5167 18.3167 21.3333 17.75 21.2C17.1833 21.0667 16.6 21 16 21Z" fill="#10B77F"/>
</svg>
