<svg width="32" height="32" viewBox="0 0 32 32" fill="none" xmlns="http://www.w3.org/2000/svg">
<rect width="32" height="32" rx="8" fill="#10B77F"/>
<path d="M9.93504 13.0389L11.31 13.6389C11.46 13.3555 11.61 13.0764 11.76 12.8014C11.91 12.5264 12.0767 12.2472 12.26 11.9639L11.21 11.7639L9.93504 13.0389ZM13.835 15.5389L16.46 18.1639C17.26 17.7805 18.0184 17.3514 18.735 16.8764C19.4517 16.4014 20.1517 15.8222 20.835 15.1389C21.9184 14.0555 22.7809 12.8639 23.4225 11.5639C24.0642 10.2639 24.3767 8.95554 24.36 7.63887C23.0434 7.6222 21.735 7.9347 20.435 8.57637C19.135 9.21804 17.9434 10.0805 16.86 11.1639C16.1767 11.8472 15.5975 12.5472 15.1225 13.2639C14.6475 13.9805 14.2184 14.7389 13.835 15.5389ZM18.585 13.4139C18.235 13.0639 18.06 12.6347 18.06 12.1264C18.06 11.618 18.235 11.1889 18.585 10.8389C18.935 10.4889 19.3642 10.3139 19.8725 10.3139C20.3809 10.3139 20.81 10.4889 21.16 10.8389C21.51 11.1889 21.685 11.618 21.685 12.1264C21.685 12.6347 21.51 13.0639 21.16 13.4139C20.81 13.7639 20.3809 13.9389 19.8725 13.9389C19.3642 13.9389 18.935 13.7639 18.585 13.4139ZM18.935 22.0639L20.235 20.7889L20.035 19.7389C19.7517 19.9222 19.4725 20.0889 19.1975 20.2389C18.9225 20.3889 18.6434 20.5389 18.36 20.6889L18.935 22.0639ZM27.485 4.51387C27.7517 7.1972 27.51 9.58054 26.76 11.6639C26.01 13.7472 24.7767 15.6472 23.06 17.3639C23.0267 17.3972 22.9892 17.4389 22.9475 17.4889C22.9059 17.5389 22.8684 17.5805 22.835 17.6139L23.335 20.1639C23.435 20.6805 23.41 21.1889 23.26 21.6889C23.11 22.1889 22.8434 22.6305 22.46 23.0139L17.885 27.5889L15.26 21.4139L10.585 16.7389L4.41004 14.1139L8.98504 9.53887C9.36837 9.15554 9.81004 8.88887 10.31 8.73887C10.81 8.58887 11.3184 8.56387 11.835 8.66387L14.385 9.16387C14.4184 9.13054 14.4559 9.10137 14.4975 9.07637C14.5392 9.05137 14.5767 9.0222 14.61 8.98887C16.3267 7.2722 18.2309 6.03054 20.3225 5.26387C22.4142 4.4972 24.8017 4.2472 27.485 4.51387ZM6.93504 19.9139C7.68504 19.1639 8.57671 18.7847 9.61004 18.7764C10.6434 18.768 11.535 19.1389 12.285 19.8889C13.035 20.6389 13.4059 21.5305 13.3975 22.5639C13.3892 23.5972 13.01 24.4889 12.26 25.2389C11.71 25.7889 10.7809 26.2597 9.47254 26.6514C8.16421 27.043 6.57671 27.3222 4.71004 27.4889C4.87671 25.6222 5.15171 24.0305 5.53504 22.7139C5.91838 21.3972 6.38504 20.4639 6.93504 19.9139ZM9.18504 22.1389C9.05171 22.2722 8.93504 22.468 8.83504 22.7264C8.73504 22.9847 8.65171 23.2805 8.58504 23.6139C8.91838 23.5472 9.21421 23.4597 9.47254 23.3514C9.73088 23.243 9.92671 23.1222 10.06 22.9889C10.1934 22.8555 10.26 22.7097 10.26 22.5514C10.26 22.393 10.1934 22.2472 10.06 22.1139C9.92671 21.9805 9.78088 21.918 9.62254 21.9264C9.46421 21.9347 9.31838 22.0055 9.18504 22.1389Z" fill="#10221C"/>
</svg>
