<svg xmlns="http://www.w3.org/2000/svg" viewBox="0 0 819 819" fill="none">
  <!-- Uptrix favicon: shield with crescent moon -->
  
  <!-- Outer shield — green -->
  <path
    d="M409.5 0C409.5 0 819 136.5 819 409.5C819 682.5 409.5 819 409.5 819C409.5 819 0 682.5 0 409.5C0 136.5 409.5 0 409.5 0Z"
    fill="#00c896"
  />
  
  <!-- Inner shield — black -->
  <path
    d="M409.5 102.375C409.5 102.375 716.625 204.75 716.625 409.5C716.625 614.25 409.5 716.625 409.5 716.625C409.5 716.625 102.375 614.25 102.375 409.5C102.375 204.75 409.5 102.375 409.5 102.375Z"
    fill="#000000"
  />
  
  <!-- Crescent moon — green -->
  <path
    d="M409.5 204.75C409.5 204.75 614.25 307.125 614.25 409.5C614.25 511.875 409.5 614.25 409.5 614.25C460.125 614.25 511.875 563.625 511.875 409.5C511.875 255.375 460.125 204.75 409.5 204.75Z"
    fill="#00c896"
  />
</svg>